<svg width="376" height="201" viewBox="0 0 376 201" fill="none" xmlns="http://www.w3.org/2000/svg">
<path d="M231.642 117.053C234.005 121.32 236.75 125.347 239.829 129.088C254.41 146.8 276.504 158.093 301.237 158.093C335.123 158.093 364.058 136.892 375.5 107.03C372.209 155.059 335.005 193.768 287.654 199.391C283.746 199.855 279.769 200.093 275.737 200.093C238.086 200.093 205.84 180.774 188.781 150.031C188.481 149.49 188.793 146.779 188.502 146.232L156.237 100.151L155.912 99.5933L146.446 85.9532L140.136 76.9425C140.136 76.9425 135.145 69.5418 134.381 68.7233C119.808 52.0471 99.123 41.0933 75.2368 41.0933C41.4412 41.0933 12.5709 62.1809 1.0663 91.9159C4.94357 44.0092 42.5862 5.64343 90.1676 0.645184C93.6408 0.280331 97.1669 0.0932889 100.737 0.0932889C138.387 0.0932889 171.42 21.3809 188.479 52.1236C189.632 54.202 190.769 55.8 191.776 57.9658L221.602 101.373L231.642 117.053Z" fill="url(#paint0_linear_226_870)"/>
<path d="M239.829 129.088L238.126 126.585C246.454 138.386 260.195 146.093 275.737 146.093C301.142 146.093 321.737 125.498 321.737 100.093C321.737 74.6882 301.142 54.0933 275.737 54.0933C256.651 54.0933 235.576 80.8792 234.076 82.8792L221.602 101.373L191.776 57.9658C190.769 55.8 189.632 54.202 188.479 52.1236C207.501 22.1336 238.086 0.0932889 275.737 0.0932889C279.131 0.0932889 282.485 0.262356 285.792 0.592541C336.299 5.63539 375.737 48.2587 375.737 100.093C375.737 102.425 375.657 104.738 375.5 107.03C364.058 136.892 335.123 158.093 301.237 158.093C276.504 158.093 254.41 146.8 239.829 129.088Z" fill="url(#paint1_linear_226_870)"/>
<path d="M1.0663 91.9159C12.5709 62.1809 41.4412 41.0933 75.2368 41.0933C99.123 41.0933 119.808 52.0471 134.381 68.7233C125.984 59.7217 114.018 54.0933 100.737 54.0933C75.3317 54.0933 54.7368 74.6882 54.7368 100.093C54.7368 125.498 75.3317 146.093 100.737 146.093C119.946 146.093 130.737 133.151 130.737 133.151L139.737 123.151L147.483 113.129L156.237 100.151L188.502 146.232C188.793 146.779 188.481 149.49 188.781 150.031C169.759 180.021 138.387 200.093 100.737 200.093C96.1629 200.093 91.6608 199.786 87.2499 199.192C38.3997 192.606 0.736755 150.748 0.736755 100.093C0.736755 97.3401 0.848021 94.6128 1.0663 91.9159Z" fill="url(#paint2_linear_226_870)"/>
<defs>
<linearGradient id="paint0_linear_226_870" x1="342.237" y1="177.593" x2="60.2368" y2="15.0933" gradientUnits="userSpaceOnUse">
<stop offset="0.01" stop-color="#A1CBFF"/>
<stop offset="0.144231" stop-color="#5FA5FC"/>
<stop offset="0.447115" stop-color="#126DDC"/>
<stop offset="0.475962" stop-color="#0464DA"/>
<stop offset="0.625" stop-color="#126DDC"/>
<stop offset="0.918269" stop-color="#67ABFF"/>
<stop offset="1" stop-color="#A1CBFF"/>
</linearGradient>
<linearGradient id="paint1_linear_226_870" x1="188.237" y1="200.375" x2="188.237" y2="-0.630008" gradientUnits="userSpaceOnUse">
<stop offset="0.360577" stop-color="#0038A0"/>
<stop offset="0.817308" stop-color="#56A2FF"/>
<stop offset="0.9999" stop-color="#A1CBFF"/>
</linearGradient>
<linearGradient id="paint2_linear_226_870" x1="188.237" y1="200.375" x2="188.237" y2="-0.630008" gradientUnits="userSpaceOnUse">
<stop offset="0.000100017" stop-color="#A1CBFF"/>
<stop offset="0.375" stop-color="#0464DA"/>
<stop offset="0.639423" stop-color="#0038A0"/>
</linearGradient>
</defs>
</svg>
